<svg width="30" height="31" viewBox="0 0 30 31" fill="none" xmlns="http://www.w3.org/2000/svg">
<circle cx="15" cy="15.1358" r="15" fill="#e63e38"/>
<path d="M17.6875 6.38583C17.6875 6.10969 17.4636 5.88583 17.1875 5.88583H12.1875C11.9114 5.88583 11.6875 6.10969 11.6875 6.38583V12.1358H6.25C5.97386 12.1358 5.75 12.3597 5.75 12.6358V17.6358C5.75 17.912 5.97386 18.1358 6.25 18.1358H11.6875V23.8858C11.6875 24.162 11.9114 24.3858 12.1875 24.3858H17.1875C17.4636 24.3858 17.6875 24.162 17.6875 23.8858V18.1358H23.4375C23.7136 18.1358 23.9375 17.912 23.9375 17.6358V12.6358C23.9375 12.3597 23.7136 12.1358 23.4375 12.1358H17.6875V6.38583Z" fill="white" stroke="white" stroke-linecap="round" stroke-linejoin="round"/>
</svg>
